<?xml version="1.0" encoding="utf-8"?>
<!-- Generator: Adobe Illustrator 23.0.2, SVG Export Plug-In . SVG Version: 6.00 Build 0)  -->
<svg version="1.1" id="Layer_1" xmlns="http://www.w3.org/2000/svg" xmlns:xlink="http://www.w3.org/1999/xlink" x="0px" y="0px"
	 viewBox="0 0 150 150" style="enable-background:new 0 0 150 150;" xml:space="preserve">
<style type="text/css">
	.st0{fill:#F5F6F6;}
	.st1{fill:url(#SVGID_1_);}
	.st2{fill:#FFFFFF;}
	.st3{fill:url(#SVGID_2_);}
	.st4{fill:#EFEEEE;}
	.st5{fill:#E0E1E0;}
	.st6{fill:#FECF9A;}
</style>
<g>
	<rect x="65.8" y="31.5" class="st0" width="18.5" height="8.4"/>
	<g>
		
			<linearGradient id="SVGID_1_" gradientUnits="userSpaceOnUse" x1="-159" y1="0.84" x2="-159" y2="-142.84" gradientTransform="matrix(1 0 0 1 234 146)">
			<stop  offset="1.000000e-02" style="stop-color:#818181;stop-opacity:0.25"/>
			<stop  offset="0.54" style="stop-color:#818181;stop-opacity:0.12"/>
			<stop  offset="1" style="stop-color:#818181;stop-opacity:0.1"/>
		</linearGradient>
		<path class="st1" d="M127.8,145.1c-2.1,2-102.4,2.7-105.4,0s-1.7-120.5,0-122.4C24.1,20.7,33.7,8.1,38.3,5
			c4.7-3.2,87.4-1.5,89.5,0S129.9,143.1,127.8,145.1z"/>
		<path class="st2" d="M126.2,141.4c-1.7,1.6-99.2,2-101.9,0c-2.8-2-1.9-112.2,0-117.8c1.9-5.6,11.5-15.8,15.4-17
			c3.9-1.2,84.4-1.9,86.5,0C128.4,8.5,127.9,139.8,126.2,141.4z"/>
	</g>
	<rect x="68.4" y="15.2" class="st0" width="18.5" height="8.4"/>
	
		<linearGradient id="SVGID_2_" gradientUnits="userSpaceOnUse" x1="-202.4974" y1="-120.7866" x2="-202.4974" y2="-139.4067" gradientTransform="matrix(1 0 0 1 234 146)">
		<stop  offset="0" style="stop-color:#B4B4B4;stop-opacity:0.25"/>
		<stop  offset="0.54" style="stop-color:#B4B4B4;stop-opacity:0.1"/>
		<stop  offset="1" style="stop-color:#B4B4B4;stop-opacity:5.000000e-02"/>
	</linearGradient>
	<polygon class="st3" points="40,6.6 40,25.2 23,25.2 23,23.6 38.4,6.6 	"/>
	<polygon class="st4" points="22.5,23.6 37.9,6.6 37.9,23.6 	"/>
	<path class="st5" d="M72.6,42.7c0.9,0,1.7,0.8,1.7,1.7l0,0c0,0.9-0.8,1.7-1.7,1.7H30.8c-0.9,0-1.7-0.8-1.7-1.7l0,0
		c0-0.9,0.8-1.7,1.7-1.7H72.6z"/>
	<path class="st5" d="M109.5,43.4c0.3,0,0.5,0.4,0.5,0.9l0,0c0,0.5-0.2,0.9-0.5,0.9H95.6c-0.3,0-0.5-0.4-0.5-0.9l0,0
		c0-0.5,0.2-0.9,0.5-0.9H109.5z"/>
	<path class="st5" d="M117.7,29.8c1.9,0,3.4,0.8,3.4,1.7l0,0c0,0.9-1.5,1.7-3.4,1.7H32.5c-1.9,0-3.4-0.8-3.4-1.7l0,0
		c0-0.9,1.5-1.7,3.4-1.7H117.7z"/>
	<path class="st5" d="M72.6,70.7c0.9,0,1.7,0.8,1.7,1.7l0,0c0,0.9-0.8,1.7-1.7,1.7H30.8c-0.9,0-1.7-0.8-1.7-1.7l0,0
		c0-0.9,0.8-1.7,1.7-1.7H72.6z"/>
	<path class="st5" d="M72.6,61.6c0.9,0,1.7,0.8,1.7,1.7l0,0c0,0.9-0.8,1.7-1.7,1.7H30.8c-0.9,0-1.7-0.8-1.7-1.7l0,0
		c0-0.9,0.8-1.7,1.7-1.7H72.6z"/>
	<path class="st5" d="M72.6,51.3c0.9,0,1.7,0.8,1.7,1.7l0,0c0,0.9-0.8,1.7-1.7,1.7H30.8c-0.9,0-1.7-0.8-1.7-1.7l0,0
		c0-0.9,0.8-1.7,1.7-1.7H72.6z"/>
	<path class="st5" d="M109.5,62.4c0.3,0,0.5,0.4,0.5,0.9l0,0c0,0.5-0.2,0.9-0.5,0.9H95.6c-0.3,0-0.5-0.4-0.5-0.9l0,0
		c0-0.5,0.2-0.9,0.5-0.9H109.5z"/>
	<path class="st6" d="M117.1,124c0,2.6-2.1,4.7-4.7,4.7H36.2c-2.6,0-4.7-2.1-4.7-4.7V87.8c0-2.6,2.1-4.7,4.7-4.7h76.3
		c2.6,0,4.7,2.1,4.7,4.7L117.1,124L117.1,124z"/>
	<path class="st5" d="M109.5,51.8c0.3,0,0.5,0.4,0.5,0.9l0,0c0,0.5-0.2,0.9-0.5,0.9H95.6c-0.3,0-0.5-0.4-0.5-0.9l0,0
		c0-0.5,0.2-0.9,0.5-0.9H109.5z"/>
</g>
</svg>
