<?xml version="1.0" encoding="utf-8"?>
<!-- Generator: Adobe Illustrator 23.0.2, SVG Export Plug-In . SVG Version: 6.00 Build 0)  -->
<svg version="1.1" id="Layer_1" xmlns="http://www.w3.org/2000/svg" xmlns:xlink="http://www.w3.org/1999/xlink" x="0px" y="0px"
	 viewBox="0 0 1080 1080" style="enable-background:new 0 0 1080 1080;" xml:space="preserve">
<style type="text/css">
	.st0{fill:#F5F6F6;}
	.st1{fill:url(#SVGID_1_);}
	.st2{fill:#FFFFFF;}
	.st3{fill:url(#SVGID_2_);}
	.st4{fill:#EFEEEE;}
	.st5{fill:#E0E1E0;}
	.st6{fill:#FECF9A;}
</style>
<g>
	<rect x="471.2" y="235.7" class="st0" width="129.4" height="58.6"/>
	<g>
		
			<linearGradient id="SVGID_1_" gradientUnits="userSpaceOnUse" x1="301.5122" y1="896.453" x2="301.5122" y2="-108.453" gradientTransform="matrix(1 0 0 1 234 146)">
			<stop  offset="1.000000e-02" style="stop-color:#818181;stop-opacity:0.25"/>
			<stop  offset="0.54" style="stop-color:#818181;stop-opacity:0.12"/>
			<stop  offset="1" style="stop-color:#818181;stop-opacity:0.1"/>
		</linearGradient>
		<path class="st1" d="M905.1,1030.1c-14.4,14-716.4,18.6-737.4,0c-21-18.6-12-843.1,0-856.4c12-13.3,78.7-101.4,111.4-123.6
			c32.7-22.1,611.4-10.5,626,0S919.5,1016.1,905.1,1030.1z"/>
		<path class="st2" d="M893.7,1004.1c-12.1,11.1-693.6,14-713,0c-19.4-14-13.4-784.7,0-823.7c13.4-39,80.7-110.7,107.7-118.8
			c27-8.1,590.3-13.4,605.3,0C908.7,74.9,905.8,993.1,893.7,1004.1z"/>
	</g>
	<rect x="489.2" y="121.8" class="st0" width="129.4" height="58.6"/>
	
		<linearGradient id="SVGID_2_" gradientUnits="userSpaceOnUse" x1="-2.7109" y1="45.7897" x2="-2.7109" y2="-84.4404" gradientTransform="matrix(1 0 0 1 234 146)">
		<stop  offset="0" style="stop-color:#B4B4B4;stop-opacity:0.25"/>
		<stop  offset="0.54" style="stop-color:#B4B4B4;stop-opacity:0.1"/>
		<stop  offset="1" style="stop-color:#B4B4B4;stop-opacity:5.000000e-02"/>
	</linearGradient>
	<polygon class="st3" points="290.7,61.6 290.7,191.8 171.9,191.8 171.9,180.4 279.3,61.6 	"/>
	<polygon class="st4" points="168.3,180.4 276,61.6 276,180.4 	"/>
	<path class="st5" d="M518.9,313.9c6.5,0,11.8,5.3,11.8,11.8l0,0c0,6.5-5.3,11.8-11.8,11.8H226.1c-6.5,0-11.8-5.3-11.8-11.8l0,0
		c0-6.5,5.3-11.8,11.8-11.8H518.9z"/>
	<path class="st5" d="M776.6,319.3c2,0,3.7,2.8,3.7,6.4l0,0c0,3.5-1.6,6.4-3.7,6.4h-96.7c-2,0-3.7-2.8-3.7-6.4l0,0
		c0-3.5,1.6-6.4,3.7-6.4H776.6z"/>
	<path class="st5" d="M834.4,223.9c13.3,0,24,5.3,24,11.8l0,0c0,6.5-10.7,11.8-24,11.8H238.3c-13.3,0-24-5.3-24-11.8l0,0
		c0-6.5,10.7-11.8,24-11.8H834.4z"/>
	<path class="st5" d="M518.9,509.8c6.5,0,11.8,5.3,11.8,11.8l0,0c0,6.5-5.3,11.8-11.8,11.8H226.1c-6.5,0-11.8-5.3-11.8-11.8l0,0
		c0-6.5,5.3-11.8,11.8-11.8H518.9z"/>
	<path class="st5" d="M518.9,446.1c6.5,0,11.8,5.3,11.8,11.8l0,0c0,6.5-5.3,11.8-11.8,11.8H226.1c-6.5,0-11.8-5.3-11.8-11.8l0,0
		c0-6.5,5.3-11.8,11.8-11.8H518.9z"/>
	<path class="st5" d="M518.9,374.5c6.5,0,11.8,5.3,11.8,11.8l0,0c0,6.5-5.3,11.8-11.8,11.8H226.1c-6.5,0-11.8-5.3-11.8-11.8l0,0
		c0-6.5,5.3-11.8,11.8-11.8H518.9z"/>
	<path class="st5" d="M776.6,451.6c2,0,3.7,2.8,3.7,6.4l0,0c0,3.5-1.6,6.4-3.7,6.4h-96.7c-2,0-3.7-2.8-3.7-6.4l0,0
		c0-3.5,1.6-6.4,3.7-6.4H776.6z"/>
	<path class="st6" d="M830.1,882.9c0,18-14.6,32.7-32.7,32.7H264c-18,0-32.7-14.6-32.7-32.7V629.7c0-18,14.6-32.7,32.7-32.7h533.5
		c18,0,32.7,14.6,32.7,32.7L830.1,882.9L830.1,882.9z"/>
	<path class="st5" d="M776.6,377.9c2,0,3.7,2.8,3.7,6.4l0,0c0,3.5-1.6,6.4-3.7,6.4h-96.7c-2,0-3.7-2.8-3.7-6.4l0,0
		c0-3.5,1.6-6.4,3.7-6.4H776.6z"/>
</g>
</svg>
