<svg id="Layer_35" enable-background="new 0 0 64 64" height="512" viewBox="0 0 64 64" width="512" xmlns="http://www.w3.org/2000/svg"><path d="m41 55v-2c.59 0 1.173-.085 1.732-.253l.576 1.915c-.746.224-1.523.338-2.308.338z"/><path d="m45.412 53.674-1.104-1.667c1.686-1.117 2.692-2.988 2.692-5.007 0-3.309-2.691-6-6-6v-2c4.411 0 8 3.589 8 8 0 2.691-1.341 5.186-3.588 6.674z"/><path d="m28 15c-2.757 0-5-2.243-5-5s2.243-5 5-5 5 2.243 5 5-2.243 5-5 5zm0-8c-1.654 0-3 1.346-3 3s1.346 3 3 3 3-1.346 3-3-1.346-3-3-3z"/><path d="m38 6h6v16h-6z" fill="#f0bc5e"/><path d="m38 5h6v2h-6z"/><path d="m38 9h6v2h-6z"/><path d="m38 13h6v2h-6z"/><path d="m38 17h6v2h-6z"/><path d="m28 13c-4.411 0-8 3.589-8 8v2h16v-2c0-4.411-3.589-8-8-8zm-6 8c0-3.309 2.691-6 6-6s6 2.691 6 6z"/><path d="m20 40h8.312v-2h-6.312v-11h20v5.134h2v-7.134h-24z"/><path d="m48 7.239v-6.239h-32v6.239l-15.187 3.228 6.703 31.533h-1.516c-2.757 0-5 2.243-5 5s2.243 5 5 5h15v-2h5.148v-2h-5.148v-2h5.148v-2h-5.148v-2h-3v-39h28v30.25h2v-23.966l12.813 2.724-6.286 29.577-.192.854 1.951.439 6.9-32.41zm-36.322 17.028c.873-1.344 2.217-2.268 3.785-2.601.174-.037.356-.057.537-.077v6.097l-5.158 1.097c-.334-1.568-.036-3.172.836-4.516zm1.111-4.975c-.672-.437-1.134-1.108-1.3-1.893-.167-.784-.019-1.585.418-2.257s1.108-1.134 1.892-1.301c.76-.161 1.539.002 2.201.422v5.023c-.302.196-.616.353-.953.424-.785.166-1.586.018-2.258-.418zm-9.602-7.285 12.813-2.723v2.761c-.835-.284-1.733-.349-2.617-.16-1.306.278-2.426 1.047-3.153 2.167s-.975 2.457-.697 3.762c.277 1.307 1.048 2.427 2.168 3.154.082.053.169.092.253.14-.758.562-1.423 1.254-1.952 2.069-1.164 1.792-1.561 3.93-1.116 6.02l.414 1.958 6.7-1.425v2.045l-6.284 1.336 1.889 8.889h-2.044zm15.813 37.993h-13c-1.654 0-3-1.346-3-3s1.346-3 3-3h13zm-5.349-8-1.562-7.349 3.911-.831v8.18z"/><path d="m38 21h6v2h-6z"/><path d="m45.636 18.728h16v6h-16z" fill="#f0bc5e" transform="matrix(.208 -.978 .978 .208 21.232 69.674)"/><path d="m54.3 10.902h2v6h-2z" transform="matrix(.208 -.978 .978 .208 30.203 65.103)"/><path d="m53.468 14.815h2v6h-2z" transform="matrix(.208 -.978 .978 .208 25.717 67.389)"/><path d="m52.636 18.728h2v5.999h-2z" transform="matrix(.208 -.978 .978 .208 21.23 69.673)"/><path d="m51.805 22.64h2v6h-2z" transform="matrix(.208 -.978 .978 .208 16.746 71.96)"/><path d="m50.973 26.553h2v6h-2z" transform="matrix(.208 -.978 .978 .208 12.26 74.245)"/><path d="m41 63c-8.822 0-16-7.178-16-16s7.178-16 16-16 16 7.178 16 16-7.178 16-16 16zm0-27c-6.065 0-11 4.935-11 11s4.935 11 11 11 11-4.935 11-11-4.935-11-11-11z" fill="#f0bc5e"/><path d="m41 59c-6.617 0-12-5.383-12-12s5.383-12 12-12 12 5.383 12 12-5.383 12-12 12zm0-22c-5.514 0-10 4.486-10 10s4.486 10 10 10 10-4.486 10-10-4.486-10-10-10z"/></svg>