<svg id="Layer_1" height="512" viewBox="0 0 128 128" width="512" xmlns="http://www.w3.org/2000/svg" data-name="Layer 1"><path d="m27.676 48.374 24.167 7.4a1.75 1.75 0 0 0 2.257-1.674v-17.8a1.75 1.75 0 0 0 -1.237-1.673l-24.163-7.404a1.75 1.75 0 0 0 -2.262 1.677v17.8a1.75 1.75 0 0 0 1.238 1.674zm2.263-17.112 20.661 6.331v14.145l-20.662-6.331z"/><path d="m52.868 65.3-24.168-7.4a1.75 1.75 0 1 0 -1.025 3.347l24.167 7.4a1.75 1.75 0 0 0 1.026-3.347z"/><path d="m52.868 75.052-24.168-7.403a1.75 1.75 0 1 0 -1.024 3.351l24.167 7.4a1.75 1.75 0 0 0 1.025-3.347z"/><path d="m52.868 84.8-24.168-7.4a1.75 1.75 0 1 0 -1.025 3.347l24.167 7.4a1.75 1.75 0 0 0 1.026-3.347z"/><path d="m52.868 94.552-24.168-7.403a1.75 1.75 0 1 0 -1.024 3.351l24.167 7.4a1.75 1.75 0 0 0 1.025-3.347z"/><path d="m112.436 10.093a1.751 1.751 0 0 0 -1.553-.266l-46.883 14.361-46.882-14.361a1.75 1.75 0 0 0 -2.263 1.673v90.5a1.75 1.75 0 0 0 1.237 1.673l47.333 14.5a1.692 1.692 0 0 0 1.1-.031c.017.018.035.036.051.031l47.333-14.5a1.75 1.75 0 0 0 1.236-1.673v-90.5a1.75 1.75 0 0 0 -.709-1.407zm-50.248 104.041-43.833-13.428v-86.84l43.833 13.428zm47.457-13.428-43.957 13.465v-86.839l43.957-13.466z"/><path d="m75.645 68.726a1.754 1.754 0 0 0 .513-.077l24.167-7.4a1.75 1.75 0 0 0 -1.025-3.349l-24.168 7.4a1.75 1.75 0 0 0 .512 3.424z"/><path d="m75.645 78.476a1.754 1.754 0 0 0 .513-.077l24.166-7.399a1.75 1.75 0 0 0 -1.024-3.351l-24.167 7.4a1.75 1.75 0 0 0 .512 3.424z"/><path d="m75.645 88.226a1.754 1.754 0 0 0 .513-.077l24.167-7.4a1.75 1.75 0 0 0 -1.025-3.349l-24.168 7.4a1.75 1.75 0 0 0 .512 3.424z"/><path d="m99.3 87.149-24.167 7.4a1.75 1.75 0 1 0 1.025 3.351l24.167-7.4a1.75 1.75 0 0 0 -1.025-3.351z"/></svg>